<?xml version="1.0" encoding="utf-8"?>
<!-- Generated by IcoMoon.io -->
<!DOCTYPE svg PUBLIC "-//W3C//DTD SVG 1.1//EN" "http://www.w3.org/Graphics/SVG/1.1/DTD/svg11.dtd">
<svg version="1.1" xmlns="http://www.w3.org/2000/svg" xmlns:xlink="http://www.w3.org/1999/xlink" width="40" height="32" viewBox="0 0 40 32">
<path fill="#000000" d="M39.498 0c-0.277 0-0.498 0.224-0.498 0.5v31c0 0.276 0.221 0.5 0.498 0.5s0.5-0.224 0.5-0.5v-31c0-0.276-0.224-0.5-0.5-0.5zM37.717 1.204c-0.17-0.083-0.376-0.062-0.526 0.055l-0.565 0.445c-2.978 2.355-7.959 6.296-18.126 6.296h-13.869c-1.451 0-2.631 1.2-2.631 2.674v10.714c0 1.44 1.18 2.612 2.631 2.612h3.394c0.088 1.125 0.502 3.794 2.454 5.761 1.474 1.486 3.5 2.239 6.021 2.239 0.276 0 0.5-0.224 0.5-0.5s-0.224-0.5-0.5-0.5c-2.242 0-4.026-0.652-5.306-1.938-1.667-1.676-2.067-4.024-2.163-5.062h2.995c0.085 0.682 0.36 1.881 1.274 2.802 0.789 0.795 1.866 1.198 3.2 1.198 0.276 0 0.5-0.224 0.5-0.5s-0.224-0.5-0.5-0.5c-1.055 0-1.891-0.302-2.484-0.896-0.657-0.659-0.894-1.546-0.981-2.104h5.396c10.216 0 15.237 3.963 18.237 6.331l0.522 0.411c0.089 0.070 0.198 0.105 0.307 0.105 0.075 0 0.15-0.017 0.219-0.051 0.172-0.084 0.281-0.258 0.281-0.449v-28.694c0.001-0.191-0.108-0.365-0.28-0.449zM3 21.388v-10.714c0-0.923 0.731-1.674 1.631-1.674h3.369v14h-3.369c-0.915 0-1.631-0.708-1.631-1.612zM37 29.317c-3.134-2.466-8.328-6.317-18.568-6.317h-5.797c-0.047-0.015-0.095-0.030-0.148-0.031-0.001 0-0.001 0-0.002 0-0.054 0-0.105 0.015-0.154 0.031h-3.331v-14h9.5c10.237 0 15.394-3.864 18.5-6.316v26.633zM0.5 21.857c0.276 0 0.5-0.224 0.5-0.5v-10.714c0-0.276-0.224-0.5-0.5-0.5s-0.5 0.223-0.5 0.5v10.714c0 0.276 0.224 0.5 0.5 0.5z"></path>
</svg>
